; NON-PLATED HOLES START AT T1
; THROUGH (PLATED) HOLES START AT T100
M48
INCH
T1C0.064972
T2C0.086614
T100C0.038000
T101C0.036111
T102C0.051056
T103C0.051083
T104C0.036076
T105C0.035000
%
T1
X007106Y007100
T2
X031106Y002100
X031106Y015100
X002106Y015100
X002106Y002100
T100
X028106Y002100
X029106Y002100
T101
X012106Y004100
X015106Y004100
X013106Y013100
X010106Y004100
X008106Y013100
X009106Y004100
X013106Y004100
X014106Y013100
X015106Y013100
X011106Y013100
X014106Y004100
X009106Y013100
X010106Y013100
X011106Y004100
X012106Y013100
X008106Y004100
T102
X021005Y010258
X021005Y009258
X021005Y008258
X021005Y007258
T103
X007106Y007100
X007106Y011100
X007106Y006100
X007106Y008100
X007106Y009100
X007106Y010100
T104
X028105Y005100
X025106Y012093
X025106Y005100
X027105Y012093
X024107Y005100
X027105Y005100
X029105Y012093
X022108Y005100
X028105Y012093
X026106Y005100
X024107Y012093
X026106Y012093
X022108Y012093
X023107Y005100
X023107Y012093
X029105Y005100
T105
X003106Y005100
X003106Y004100
T00
M30
