G04 MADE WITH FRITZING*
G04 WWW.FRITZING.ORG*
G04 DOUBLE SIDED*
G04 HOLES PLATED*
G04 CONTOUR ON CENTER OF CONTOUR VECTOR*
%ASAXBY*%
%FSLAX23Y23*%
%MOIN*%
%OFA0B0*%
%SFA1.0B1.0*%
%ADD10C,0.078861*%
%ADD11C,0.064972*%
%ADD12C,0.078833*%
%ADD13C,0.077701*%
%ADD14C,0.077778*%
%ADD15C,0.075000*%
%ADD16C,0.078000*%
%ADD17R,0.075000X0.075000*%
%LNCOPPER0*%
G90*
G70*
G54D10*
X711Y610D03*
G54D11*
X711Y710D03*
G54D10*
X711Y810D03*
X711Y910D03*
X711Y1010D03*
X711Y1110D03*
G54D12*
X2101Y726D03*
X2101Y826D03*
X2101Y926D03*
X2101Y1026D03*
G54D13*
X2211Y510D03*
X2311Y510D03*
X2411Y510D03*
X2511Y510D03*
X2611Y510D03*
X2711Y510D03*
X2811Y510D03*
X2911Y510D03*
X2211Y1209D03*
X2311Y1209D03*
X2411Y1209D03*
X2511Y1209D03*
X2611Y1209D03*
X2711Y1209D03*
X2811Y1209D03*
X2911Y1209D03*
G54D14*
X1511Y1310D03*
X1411Y1310D03*
X1311Y1310D03*
X1211Y1310D03*
X1111Y1310D03*
X1011Y1310D03*
X911Y1310D03*
X811Y1310D03*
X811Y410D03*
X911Y410D03*
X1011Y410D03*
X1111Y410D03*
X1211Y410D03*
X1311Y410D03*
X1411Y410D03*
X1511Y410D03*
G54D15*
X311Y410D03*
X311Y510D03*
G54D16*
X2811Y210D03*
X2911Y210D03*
G54D17*
X311Y410D03*
G04 End of Copper0*
M02*